HIERARCHY
ROOT Hips
{
	OFFSET 0.00000 0.00000 0.00000
	CHANNELS 6 Xposition Yposition Zposition Zrotation Yrotation Xrotation 
	JOINT LHipJoint
	{
		OFFSET 0 0 0
		CHANNELS 3 Zrotation Yrotation Xrotation
		JOINT LeftUpLeg
		{
			OFFSET 1.64577 -1.42384 0.94276
			CHANNELS 3 Zrotation Yrotation Xrotation
			JOINT LeftLeg
			{
				OFFSET 2.11538 -5.81197 0.00000
				CHANNELS 3 Zrotation Yrotation Xrotation
				JOINT LeftFoot
				{
					OFFSET 2.36541 -6.49893 0.00000
					CHANNELS 3 Zrotation Yrotation Xrotation
					JOINT LeftToeBase
					{
						OFFSET 0.17759 -0.48793 1.73865
						CHANNELS 3 Zrotation Yrotation Xrotation
						End Site
						{
							OFFSET 0.00000 -0.00000 0.91205
						}
					}
				}
			}
		}
	}
	JOINT RHipJoint
	{
		OFFSET 0 0 0
		CHANNELS 3 Zrotation Yrotation Xrotation
		JOINT RightUpLeg
		{
			OFFSET -1.43750 -1.42384 0.94276
			CHANNELS 3 Zrotation Yrotation Xrotation
			JOINT RightLeg
			{
				OFFSET -2.10480 -5.78291 0.00000
				CHANNELS 3 Zrotation Yrotation Xrotation
				JOINT RightFoot
				{
					OFFSET -2.34880 -6.45329 0.00000
					CHANNELS 3 Zrotation Yrotation Xrotation
					JOINT RightToeBase
					{
						OFFSET -0.22842 -0.62757 1.80469
						CHANNELS 3 Zrotation Yrotation Xrotation
						End Site
						{
							OFFSET -0.00000 -0.00000 0.95886
						}
					}
				}
			}
		}
	}
	JOINT LowerBack
	{
		OFFSET 0 0 0
		CHANNELS 3 Zrotation Yrotation Xrotation
		JOINT Spine
		{
			OFFSET 0.06217 1.93758 -0.49272
			CHANNELS 3 Zrotation Yrotation Xrotation
			JOINT Spine1
			{
				OFFSET -0.03114 2.03621 -0.05830
				CHANNELS 3 Zrotation Yrotation Xrotation
				JOINT Neck
				{
					OFFSET 0 0 0
					CHANNELS 3 Zrotation Yrotation Xrotation
					JOINT Neck1
					{
						OFFSET 0.04421 1.41010 0.26562
						CHANNELS 3 Zrotation Yrotation Xrotation
						JOINT Head
						{
							OFFSET -0.13407 1.43847 0.06181
							CHANNELS 3 Zrotation Yrotation Xrotation
							End Site
							{
								OFFSET -0.04980 1.45844 -0.00689
							}
						}
					}
				}
				JOINT LeftShoulder
				{
					OFFSET 0 0 0
					CHANNELS 3 Zrotation Yrotation Xrotation
					JOINT LeftArm
					{
						OFFSET 2.18382 1.47753 -0.35694
						CHANNELS 3 Zrotation Yrotation Xrotation
						JOINT LeftForeArm
						{
							OFFSET 5.05460 -0.00000 0.00000
							CHANNELS 3 Zrotation Yrotation Xrotation
							JOINT LeftHand
							{
								OFFSET 3.39013 -0.00000 0.00000
								CHANNELS 3 Zrotation Yrotation Xrotation
								JOINT LeftFingerBase
								{
									OFFSET 0 0 0
									CHANNELS 3 Zrotation Yrotation Xrotation
									JOINT LeftHandIndex1
									{
										OFFSET 0.57242 -0.00000 -0.00000
										CHANNELS 3 Zrotation Yrotation Xrotation
										End Site
										{
											OFFSET 0.46150 -0.00000 -0.00000
										}
									}
								}
								JOINT LThumb
								{
									OFFSET 0 0 0
									CHANNELS 3 Zrotation Yrotation Xrotation
									End Site
									{
										OFFSET 0.46855 -0.00000 0.46855
									}
								}
							}
						}
					}
				}
				JOINT RightShoulder
				{
					OFFSET 0 0 0
					CHANNELS 3 Zrotation Yrotation Xrotation
					JOINT RightArm
					{
						OFFSET -2.06033 1.72839 -0.47437
						CHANNELS 3 Zrotation Yrotation Xrotation
						JOINT RightForeArm
						{
							OFFSET -5.07010 -0.00000 0.00000
							CHANNELS 3 Zrotation Yrotation Xrotation
							JOINT RightHand
							{
								OFFSET -3.14957 -0.00000 -0.00000
								CHANNELS 3 Zrotation Yrotation Xrotation
								JOINT RightFingerBase
								{
									OFFSET 0 0 0
									CHANNELS 3 Zrotation Yrotation Xrotation
									JOINT RightHandIndex1
									{
										OFFSET -0.71819 -0.00000 -0.00000
										CHANNELS 3 Zrotation Yrotation Xrotation
										End Site
										{
											OFFSET -0.57902 -0.00000 -0.00000
										}
									}
								}
								JOINT RThumb
								{
									OFFSET 0 0 0
									CHANNELS 3 Zrotation Yrotation Xrotation
									End Site
									{
										OFFSET -0.58786 -0.00000 0.58786
									}
								}
							}
						}
					}
				}
			}
		}
	}
}
MOTION
Frames: 9
Frame Time: .0083333
15.4160 15.5342 2.5877 184.4920 52.5965 178.0910 0.0000 0.0000 0.0000 -17.6377 -20.2765 2.6002 2.3496 9.5591 27.5604 0.3727 8.4052 -17.5245 2.5401 -9.9105 -28.6875 0.0000 0.0000 0.0000 17.4898 6.1346 -8.2021 -3.5473 -11.5323 34.0970 0.7600 -15.6800 -9.9061 -5.2700 13.6815 -41.9764 -4.9241 2.6907 12.4659 -4.6702 3.4294 5.0240 -2.5824 1.9346 -1.6731 12.6940 11.0881 3.7066 -3.3214 15.9642 -12.1807 -3.4041 7.7592 -3.0421 0.0000 -0.0000 0.0000 -50.9017 46.4303 84.8478 124.1439 -55.1006 -89.0831 -0.0000 0.0000 -35.9964 52.5467 9.5629 12.2363 -7.1250 0.0000 -0.0000 23.6480 44.0838 -0.5682 0.0000 -0.0000 0.0000 68.6209 -43.6335 77.0546 -104.3054 59.2125 -72.3560 0.0000 -0.0000 -34.9053 -53.8616 23.4362 -28.5750 7.1250 -0.0000 -0.0000 -14.3944 5.3362 -16.1685
15.4490 15.2300 2.5997 195.2680 55.7279 185.4650 0.0000 0.0000 0.0000 -10.5618 -16.0420 1.7647 2.9124 10.5519 30.7830 1.0617 7.6308 -23.6364 2.6073 -10.0304 -29.0751 0.0000 0.0000 0.0000 24.8736 8.4508 -5.0663 -3.5092 -11.4770 33.9059 0.0663 -12.4782 -16.8635 -5.2360 13.6448 -41.8327 0.5116 2.6236 13.7131 -2.8365 3.8756 5.0942 -3.8437 2.1411 -2.0732 14.2641 10.4794 6.3088 -5.8336 15.3704 -14.1670 -4.6163 7.4369 -3.7718 0.0000 -0.0000 0.0000 -51.3173 47.1196 84.5905 124.3224 -55.0436 -89.2294 -0.0000 0.0000 -36.9075 52.3889 9.1620 11.6773 -7.1250 0.0000 -0.0000 23.3261 43.4661 -0.9376 0.0000 -0.0000 0.0000 67.7787 -43.4703 78.2810 -104.0729 59.2383 -72.1563 0.0000 -0.0000 -35.7936 -54.4211 22.6488 -28.2933 7.1250 -0.0000 -0.0000 -14.9230 4.6127 -16.6295
15.4536 15.0273 2.6189 193.9650 58.7405 184.7480 0.0000 0.0000 0.0000 -11.4462 -14.7601 -0.2545 3.6938 11.7414 34.8232 1.5653 7.0396 -27.0884 2.3790 -9.6144 -27.7369 0.0000 0.0000 0.0000 24.0343 11.0296 -4.1454 -3.4188 -11.3440 33.4491 -0.6685 -9.9779 -22.1225 -4.4549 12.7423 -38.4115 -1.0837 2.9315 13.8557 -3.0356 4.0423 4.8569 -3.2019 2.2005 -2.4786 12.7895 10.3977 4.6783 -3.8158 15.0582 -12.3781 -3.6349 7.2849 -3.2715 0.0000 -0.0000 0.0000 -52.0261 47.0257 84.2313 123.4790 -55.3093 -88.5371 -0.0000 0.0000 -37.1976 53.3885 8.7433 11.5628 -7.1250 0.0000 -0.0000 24.1232 43.0409 -1.2447 0.0000 -0.0000 0.0000 68.0160 -42.9595 78.2045 -102.0652 59.4428 -70.4292 0.0000 -0.0000 -36.6803 -55.8117 22.7644 -29.6666 7.1250 -0.0000 -0.0000 -15.6462 5.5798 -17.7391
15.4824 14.8721 2.6300 190.1450 61.0735 183.8360 0.0000 0.0000 0.0000 -12.7906 -14.1092 -5.2059 4.5299 12.8340 38.7502 1.6678 7.2547 -27.9371 2.5270 -9.8869 -28.6113 0.0000 0.0000 0.0000 21.7806 13.2737 -6.0918 -3.3850 -11.2936 33.2767 -0.4813 -12.5358 -22.9718 -5.4341 13.8565 -42.6658 -3.7924 3.2095 11.4133 -3.7168 4.1102 4.2559 -2.2689 2.2009 -1.9111 12.8154 9.9732 4.7038 -3.5231 14.5157 -12.2451 -3.5508 6.9972 -3.3007 -0.0000 -0.0000 0.0000 -52.1975 45.9569 84.2404 121.6095 -55.8656 -86.9947 -0.0000 0.0000 -36.7474 54.1598 9.1867 12.4641 -7.1250 0.0000 -0.0000 25.0841 43.8595 -0.7566 -0.0000 -0.0000 0.0000 69.6163 -41.9859 77.1029 -97.6930 59.7752 -66.6573 0.0000 -0.0000 -37.5651 -57.1231 22.9864 -31.1393 7.1250 -0.0000 -0.0000 -16.2891 6.6928 -18.8117
15.4705 14.8050 2.6360 197.6820 62.8789 191.6910 0.0000 0.0000 0.0000 -8.2472 -12.1137 -8.7235 5.2343 13.6429 41.8254 1.8484 6.4452 -28.6692 2.5621 -9.9499 -28.8147 0.0000 0.0000 0.0000 25.5296 16.0837 -7.1378 -3.5185 -11.4906 33.9528 -0.5692 -12.6810 -23.9122 -4.9976 13.3810 -40.8122 -0.4485 2.8861 10.5901 -3.1233 3.9729 3.9032 -3.4564 2.1115 -1.6630 13.0127 9.8708 4.5000 -3.7049 14.2864 -11.6503 -3.5877 6.8947 -3.0751 -0.0000 -0.0000 0.0000 -52.8239 45.8423 83.3439 120.7836 -56.0975 -86.3101 -0.0000 0.0000 -35.9628 53.1832 13.0206 16.7509 -7.1250 0.0000 -0.0000 25.8996 49.2184 2.8689 -0.0000 -0.0000 0.0000 70.4043 -41.0464 76.1202 -95.4673 59.8867 -64.7330 0.0000 -0.0000 -38.8237 -57.2092 24.4035 -32.6731 7.1250 -0.0000 -0.0000 -15.9167 8.6364 -18.8125
15.4575 14.7276 2.6604 204.7040 64.2296 198.0750 0.0000 0.0000 0.0000 -4.9709 -10.9240 -9.8477 5.7994 14.2311 44.1712 2.0485 6.3599 -29.9154 2.4214 -9.6936 -27.9901 0.0000 0.0000 0.0000 29.3412 19.8138 -6.3442 -3.6442 -11.6712 34.5785 -0.4224 -13.9403 -24.0088 -4.7393 13.0840 -39.6838 2.0636 2.6434 11.0212 -2.5393 3.8957 3.9657 -4.2747 2.0751 -1.7125 13.0996 9.8208 4.2836 -3.8450 14.1642 -11.5271 -3.6207 6.8380 -2.9949 -0.0000 0.0000 0.0000 -53.4965 45.5504 82.5460 120.2286 -56.2487 -85.8490 -0.0000 0.0000 -35.6350 54.5151 13.1172 17.6584 -7.1250 0.0000 -0.0000 27.4838 49.7224 3.4316 -0.0000 0.0000 0.0000 71.3524 -40.7162 74.8403 -95.5396 59.8837 -64.7956 0.0000 -0.0000 -37.2077 -56.5008 24.9825 -32.5423 7.1250 -0.0000 -0.0000 -15.3652 8.9357 -18.1804
15.4142 14.7182 2.6981 209.1640 66.4216 201.9490 0.0000 0.0000 0.0000 -4.1214 -10.3375 -9.5324 6.0968 14.5215 45.3688 2.2119 7.0460 -31.3087 2.0534 -8.9764 -25.7215 0.0000 0.0000 0.0000 30.7849 21.4559 -6.2687 -3.6626 -11.6974 34.6698 -0.3032 -13.2330 -22.0823 -4.5128 12.8132 -38.6731 2.4618 2.5845 12.3545 -2.2619 3.8846 3.9356 -4.2966 2.0527 -2.4637 12.7100 9.9952 4.0677 -3.2338 14.3731 -10.6893 -3.6901 6.9283 -3.0565 0.0000 -0.0000 0.0000 -54.5575 45.9656 81.5025 120.3888 -56.2055 -85.9822 -0.0000 0.0000 -35.9195 55.4367 13.3301 18.5041 -7.1250 0.0000 -0.0000 28.6986 50.2961 4.0379 0.0000 -0.0000 0.0000 70.1678 -40.4911 75.8256 -95.7844 59.8732 -65.0073 0.0000 -0.0000 -35.3734 -55.6129 24.6016 -31.3119 7.1250 -0.0000 -0.0000 -15.0036 7.8854 -17.4908
15.3502 14.7346 2.7374 215.2780 68.1831 207.4540 0.0000 0.0000 0.0000 -2.8767 -9.4627 -8.3267 5.7449 14.1765 43.9491 2.0908 7.9959 -31.1267 1.7514 -8.3278 -23.7144 0.0000 0.0000 0.0000 32.6332 23.0209 -6.0308 -3.6360 -11.6597 34.5384 -0.1833 -12.8549 -20.3963 -4.3725 12.6402 -38.0363 3.5142 2.5885 14.0530 -2.0321 4.0693 3.7569 -4.7987 2.1114 -3.4977 12.5891 9.9938 3.8664 -2.9632 14.3309 -10.2567 -3.5396 6.9130 -2.9002 0.0000 -0.0000 0.0000 -54.4031 46.0308 81.3798 120.9233 -56.0588 -86.4260 -0.0000 0.0000 -36.8985 55.0565 12.1180 16.7221 -7.1250 0.0000 -0.0000 27.5474 48.4250 2.5045 0.0000 -0.0000 0.0000 69.7005 -40.6515 76.6442 -96.2854 59.8502 -65.4406 0.0000 -0.0000 -34.7580 -55.4145 25.0376 -31.5423 7.1250 -0.0000 -0.0000 -14.7680 8.3285 -17.2950
15.3102 14.7585 2.7863 221.9170 69.2777 213.2470 0.0000 0.0000 0.0000 -1.5132 -8.6936 -6.5676 5.2650 13.6762 41.9554 1.9195 8.8591 -30.6073 1.4331 -7.5691 -21.4126 0.0000 0.0000 0.0000 34.7823 24.0885 -4.8618 -3.4349 -11.3679 33.5308 -0.1248 -12.5127 -19.3110 -4.1242 12.3239 -36.8876 4.5793 2.6758 15.8778 -1.6746 4.4309 3.5743 -5.2239 2.2426 -4.5856 12.3248 9.7905 3.5493 -2.6437 13.9811 -9.5863 -3.3326 6.7539 -2.6788 0.0000 -0.0000 0.0000 -53.2077 45.7696 82.6090 121.7539 -55.8242 -87.1141 -0.0000 0.0000 -36.2351 56.1366 13.1086 18.6740 -7.1250 0.0000 -0.0000 29.4032 50.1842 4.0670 0.0000 -0.0000 0.0000 69.8636 -41.3052 76.7322 -96.9355 59.8175 -66.0026 0.0000 -0.0000 -34.7229 -55.3842 25.7649 -32.1999 7.1250 -0.0000 -0.0000 -14.5341 9.2420 -17.1973
